<svg version="1.1" id="Layer_1" xmlns="http://www.w3.org/2000/svg" xmlns:xlink="http://www.w3.org/1999/xlink" x="0px" y="0px"
	 width="auto" height="100%" viewBox="0 0 100.235 103.583" enable-background="new 0 0 100.235 103.583"
	 xml:space="preserve" preserveAspectRatio="none">
<path fill="#00FFFF" d="M67.919,103.583h-0.004l-30.277-0.152c-0.256,0-0.492-0.141-0.617-0.365
	c-0.123-0.225-0.116-0.498,0.02-0.717L68.419,51.78L37.048,1.224c-0.137-0.219-0.143-0.494-0.017-0.719
	c0.126-0.226,0.371-0.372,0.622-0.363l30.268,0.152c0.243,0.001,0.47,0.128,0.599,0.335l31.608,50.938
	c0.143,0.229,0.143,0.519,0,0.747l-31.606,50.935C68.393,103.456,68.165,103.583,67.919,103.583"/>
<path fill="#00FFFF" d="M30.986,103.442h-0.004L0.705,103.29c-0.256-0.001-0.492-0.141-0.617-0.365
	c-0.123-0.225-0.116-0.499,0.02-0.717l31.379-50.569L0.115,1.083c-0.137-0.219-0.143-0.494-0.017-0.719
	C0.224,0.138,0.469-0.009,0.72,0l30.268,0.152c0.243,0.001,0.47,0.128,0.599,0.335l31.608,50.938c0.143,0.229,0.143,0.52,0,0.748
	l-31.606,50.934C31.459,103.315,31.231,103.442,30.986,103.442 M1.978,101.879l28.615,0.144l31.166-50.224L30.588,1.568L1.994,1.424
	l30.929,49.84c0.142,0.229,0.143,0.52,0,0.748l-0.232,0.374L1.978,101.879z"/>
</svg>
