<svg version="1" xmlns="http://www.w3.org/2000/svg" width="1084" height="1084" viewBox="0 0 813.000000 813.000000"><path d="M165 240.2c-41.4 86-76.5 158.6-77.8 161.4l-2.5 5.2 77.8 161.1L240.3 729h111.3c61.3 0 111.4-.3 111.4-.6 0-.4-34.9-72.9-77.5-161.2L308 406.7l77.1-159.6c42.4-87.8 77.3-160.4 77.6-161.4.5-1.6-5.2-1.7-110.9-1.7H240.5L165 240.2z"/><path d="M430 240.2c-41.4 86-76.5 158.6-77.8 161.5l-2.5 5.1 77.8 161.1L505.3 729h111.3c61.3 0 111.4-.3 111.4-.6 0-.4-34.9-72.9-77.5-161.2L573 406.7l77.1-159.6c42.4-87.8 77.3-160.4 77.6-161.4.5-1.6-5.2-1.7-110.9-1.7H505.5L430 240.2z"/></svg>