<svg version="1.1" id="Layer_1" xmlns="http://www.w3.org/2000/svg" xmlns:xlink="http://www.w3.org/1999/xlink" x="0px" y="0px"
	viewBox="0 0 202.29 328.17" enable-background="new 0 0 202.29 328.17" xml:space="preserve">
<path fill="#00FFFF" d="M100.212,164.422l-0.205-0.328c-0.1-0.162-0.1-0.367,0-0.528L200.881,1.004l-98.747,0.497L1.087,164.338
	l101.043,162.83l98.764-0.496L100.212,164.422z M101.853,328.17c-0.173,0-0.333-0.09-0.425-0.236L0.076,164.602
	c-0.101-0.161-0.101-0.367,0-0.528L101.43,0.739c0.091-0.146,0.25-0.236,0.423-0.236L201.781,0c0.188,0.003,0.351,0.097,0.439,0.256
	s0.084,0.353-0.013,0.508L101.062,163.762l-0.041,0.066l101.194,163.075c0.095,0.155,0.1,0.349,0.013,0.506
	c-0.088,0.158-0.254,0.257-0.437,0.259l-99.439,0.498l-0.497,0.004H101.853"/>
</svg>
