<svg version="1.1" id="Layer_1" xmlns="http://www.w3.org/2000/svg" xmlns:xlink="http://www.w3.org/1999/xlink" x="0px" y="0px"
	 viewBox="0 0 805.582 797.272" enable-background="new 0 0 805.582 797.272"
	 xml:space="preserve">
<path opacity="0.3" fill="#00FFFF" d="M249.067,797.272c-1.888,0-3.646-0.977-4.641-2.584L0.822,402.117
	c-1.096-1.763-1.096-3.996,0-5.761L244.445,3.757c0.991-1.598,2.734-2.573,4.613-2.583l233.284-1.171
	c1.932-0.07,3.822,1.059,4.793,2.795c0.973,1.736,0.924,3.86-0.125,5.547L245.215,398.001l241.856,389.757
	c1.044,1.68,1.098,3.791,0.141,5.521c-0.959,1.732-2.777,2.811-4.754,2.818l-233.363,1.174H249.067 M235.937,403.764l-1.792-2.879
	c-1.097-1.766-1.094-4.003,0.002-5.769L472.521,10.978l-220.387,1.106L11.891,399.237l240.207,387.096l220.546-1.107
	L235.937,403.764z"/>
<path opacity="0.3" fill="#00FFFF" d="M566.756,797.272c-1.888,0-3.646-0.977-4.641-2.584L318.511,402.117
	c-1.096-1.763-1.096-3.996,0-5.761L562.134,3.757c0.991-1.598,2.734-2.573,4.613-2.583L800.03,0.003
	c1.933-0.07,3.823,1.059,4.794,2.795c0.973,1.736,0.924,3.86-0.125,5.547L562.903,398.001L804.76,787.758
	c1.044,1.68,1.098,3.791,0.141,5.521c-0.959,1.732-2.777,2.811-4.753,2.818l-233.364,1.174H566.756"/>
</svg>
