<svg version="1.1" id="Layer_1" xmlns="http://www.w3.org/2000/svg" xmlns:xlink="http://www.w3.org/1999/xlink" x="0px" y="0px"
	 viewBox="0 0 318.882 328.733" enable-background="new 0 0 318.882 328.733"
	 xml:space="preserve">
<path fill="#00FFFF" d="M216.291,328.733h-0.012l-96.123-0.482c-0.814-0.004-1.563-0.448-1.959-1.161
	c-0.394-0.714-0.371-1.583,0.059-2.274l99.622-160.544L118.281,3.769c-0.433-0.695-0.453-1.57-0.053-2.285
	c0.4-0.715,1.18-1.18,1.975-1.151l96.092,0.482c0.773,0.004,1.492,0.406,1.9,1.064l100.35,161.714c0.451,0.727,0.451,1.647,0,2.373
	L218.203,327.668C217.792,328.331,217.068,328.733,216.291,328.733 M124.199,323.771l90.844,0.456l98.943-159.447L215.027,5.309
	l-90.778-0.456l98.188,158.229c0.451,0.727,0.452,1.648,0,2.376l-0.738,1.186L124.199,323.771z"/>
<path fill="#00FFFF" d="M1.396,326.672l98.764,0.496l101.043-162.831L100.156,1.501L1.409,1.004l100.874,162.562
	c0.1,0.161,0.1,0.366,0,0.528l-0.205,0.329L1.396,326.672z M100.437,328.17h-0.002l-0.497-0.004l-99.439-0.498
	c-0.183-0.002-0.349-0.101-0.437-0.259c-0.087-0.157-0.082-0.351,0.013-0.506l101.194-163.075l-0.041-0.066L0.083,0.764
	C-0.014,0.609-0.019,0.415,0.07,0.256S0.321,0.003,0.509,0l99.928,0.503c0.173,0,0.332,0.09,0.423,0.236l101.354,163.335
	c0.101,0.161,0.101,0.367,0,0.528L100.862,327.934C100.77,328.081,100.61,328.17,100.437,328.17"/>
</svg>
