<svg version="1.1" id="Layer_1" xmlns="http://www.w3.org/2000/svg" xmlns:xlink="http://www.w3.org/1999/xlink" x="0px" y="0px"
	 viewBox="0 0 805.582 797.272" enable-background="new 0 0 805.582 797.272"
	 xml:space="preserve">
<path opacity="0.3" fill="#00FFFF" d="M556.515,797.272h-0.027l-233.363-1.174c-1.977-0.008-3.795-1.086-4.754-2.818
	c-0.957-1.73-0.903-3.842,0.141-5.521l241.856-389.757L318.571,8.345c-1.049-1.687-1.098-3.811-0.125-5.547
	c0.971-1.736,2.861-2.865,4.793-2.795l233.284,1.171c1.879,0.01,3.622,0.985,4.613,2.583L804.76,396.355
	c1.096,1.765,1.096,3.999,0,5.761L561.155,794.688C560.16,796.295,558.402,797.272,556.515,797.272 M332.938,785.225l220.546,1.107
	l240.207-387.096L553.447,12.083l-220.387-1.106l238.375,384.139c1.096,1.765,1.099,4.003,0.002,5.769l-1.792,2.879L332.938,785.225
	z"/>
<path opacity="0.3" fill="#00FFFF" d="M238.826,797.272h-0.027L5.435,796.098c-1.976-0.008-3.794-1.086-4.753-2.818
	c-0.957-1.73-0.903-3.842,0.141-5.521l241.856-389.757L0.883,8.345c-1.049-1.687-1.098-3.811-0.125-5.547
	c0.971-1.736,2.861-2.865,4.794-2.795l233.283,1.171c1.879,0.01,3.622,0.985,4.613,2.583l243.623,392.599
	c1.096,1.765,1.096,3.999,0,5.761L243.467,794.688C242.472,796.295,240.714,797.272,238.826,797.272"/>
</svg>
