<?xml version="1.0" encoding="utf-8"?>
<!-- Generator: Adobe Illustrator 16.0.0, SVG Export Plug-In . SVG Version: 6.00 Build 0)  -->
<!DOCTYPE svg PUBLIC "-//W3C//DTD SVG 1.1//EN" "http://www.w3.org/Graphics/SVG/1.1/DTD/svg11.dtd">
<svg version="1.1" id="Layer_1" xmlns="http://www.w3.org/2000/svg" xmlns:xlink="http://www.w3.org/1999/xlink" x="0px" y="0px"
	 width="453.547px" height="144.313px" viewBox="0 0 453.547 144.313" enable-background="new 0 0 453.547 144.313"
	 xml:space="preserve">
<g>
	<g>
		<path fill="#000000" d="M31.44,40.367h31.68c0.052,0.587,0.092,1.188,0.12,1.8c0.026,0.614,0.04,1.24,0.04,1.88
			c0,4.32-0.827,8.4-2.48,12.24c-1.653,3.84-3.907,7.2-6.76,10.08c-2.854,2.88-6.2,5.147-10.04,6.8
			c-3.84,1.653-7.947,2.48-12.32,2.48c-4.374,0-8.48-0.827-12.32-2.48c-3.84-1.652-7.2-3.92-10.08-6.8
			c-2.88-2.88-5.147-6.24-6.8-10.08C0.826,52.447,0,48.367,0,44.047c0-4.373,0.826-8.48,2.48-12.32c1.652-3.84,3.92-7.2,6.8-10.08
			c2.88-2.88,6.24-5.146,10.08-6.8c3.84-1.652,7.946-2.48,12.32-2.48c3.572,0,6.986,0.574,10.24,1.72
			c3.252,1.147,6.2,2.72,8.84,4.72c2.64,2,4.933,4.4,6.88,7.2c1.946,2.8,3.4,5.827,4.36,9.08H39.44
			c-1.067-0.906-2.254-1.626-3.56-2.16c-1.308-0.533-2.708-0.8-4.2-0.8c-1.654,0-3.2,0.308-4.64,0.92
			c-1.44,0.614-2.708,1.467-3.8,2.56c-1.094,1.094-1.948,2.36-2.56,3.8c-0.614,1.44-0.92,2.987-0.92,4.64
			c0,1.654,0.307,3.2,0.92,4.64c0.612,1.44,1.466,2.694,2.56,3.76c1.092,1.067,2.36,1.907,3.8,2.52c1.44,0.614,2.986,0.92,4.64,0.92
			c2.132,0,4.08-0.506,5.84-1.52c1.76-1.013,3.172-2.373,4.24-4.08H31.44V40.367z"/>
		<path fill="#000000" d="M64.159,13.647h31.6c2.933,0,5.68,0.548,8.24,1.64c2.56,1.094,4.786,2.587,6.68,4.48
			c1.893,1.894,3.386,4.12,4.48,6.68c1.093,2.56,1.64,5.308,1.64,8.24c0,3.734-0.894,7.147-2.68,10.24
			c-1.787,3.094-4.147,5.574-7.08,7.44l10,22h-25.2l-7.04-19.6v19.6h-20.64V13.647z M92.079,41.487c1.333,0,2.493-0.48,3.48-1.44
			c0.986-0.96,1.48-2.133,1.48-3.52c0-1.333-0.494-2.48-1.48-3.44c-0.987-0.96-2.147-1.44-3.48-1.44h-7.28v9.84H92.079z"/>
		<path fill="#000000" d="M116.798,44.047c0-4.373,0.826-8.48,2.48-12.32c1.652-3.84,3.92-7.2,6.8-10.08
			c2.88-2.88,6.24-5.146,10.08-6.8c3.84-1.652,7.947-2.48,12.32-2.48s8.48,0.828,12.32,2.48c3.84,1.654,7.187,3.92,10.04,6.8
			c2.853,2.88,5.106,6.24,6.76,10.08c1.652,3.84,2.48,7.948,2.48,12.32c0,4.32-0.828,8.4-2.48,12.24
			c-1.653,3.84-3.907,7.2-6.76,10.08c-2.854,2.88-6.2,5.147-10.04,6.8c-3.84,1.653-7.947,2.48-12.32,2.48s-8.479-0.827-12.32-2.48
			c-3.84-1.652-7.2-3.92-10.08-6.8c-2.88-2.88-5.147-6.24-6.8-10.08C117.624,52.447,116.798,48.367,116.798,44.047z M136.558,44.047
			c0,1.654,0.307,3.2,0.92,4.64c0.612,1.44,1.466,2.694,2.56,3.76c1.092,1.067,2.359,1.907,3.8,2.52
			c1.44,0.614,2.986,0.92,4.64,0.92c1.652,0,3.2-0.306,4.641-0.92c1.439-0.613,2.692-1.453,3.76-2.52
			c1.066-1.066,1.906-2.32,2.52-3.76s0.92-2.986,0.92-4.64c0-1.653-0.307-3.2-0.92-4.64s-1.453-2.706-2.52-3.8
			c-1.067-1.093-2.32-1.946-3.76-2.56c-1.44-0.613-2.988-0.92-4.641-0.92c-1.653,0-3.199,0.308-4.64,0.92
			c-1.44,0.614-2.708,1.467-3.8,2.56c-1.094,1.094-1.948,2.36-2.56,3.8C136.864,40.847,136.558,42.395,136.558,44.047z"/>
		<path fill="#000000" d="M180.077,44.047c0-4.373,0.826-8.48,2.48-12.32c1.652-3.84,3.92-7.2,6.8-10.08
			c2.88-2.88,6.239-5.146,10.08-6.8c3.84-1.652,7.946-2.48,12.319-2.48s8.48,0.828,12.32,2.48c3.84,1.654,7.187,3.92,10.04,6.8
			c2.853,2.88,5.106,6.24,6.76,10.08c1.652,3.84,2.48,7.948,2.48,12.32c0,4.32-0.828,8.4-2.48,12.24
			c-1.653,3.84-3.907,7.2-6.76,10.08c-2.854,2.88-6.2,5.147-10.04,6.8c-3.84,1.653-7.947,2.48-12.32,2.48s-8.479-0.827-12.319-2.48
			c-3.841-1.652-7.2-3.92-10.08-6.8s-5.147-6.24-6.8-10.08C180.903,52.447,180.077,48.367,180.077,44.047z M199.837,44.047
			c0,1.654,0.307,3.2,0.92,4.64s1.467,2.694,2.561,3.76c1.092,1.067,2.359,1.907,3.8,2.52c1.44,0.614,2.986,0.92,4.64,0.92
			c1.652,0,3.2-0.306,4.641-0.92c1.439-0.613,2.692-1.453,3.76-2.52c1.066-1.066,1.906-2.32,2.52-3.76s0.92-2.986,0.92-4.64
			c0-1.653-0.307-3.2-0.92-4.64s-1.453-2.706-2.52-3.8c-1.067-1.093-2.32-1.946-3.76-2.56c-1.44-0.613-2.988-0.92-4.641-0.92
			c-1.653,0-3.199,0.308-4.64,0.92c-1.44,0.614-2.708,1.467-3.8,2.56c-1.094,1.094-1.947,2.36-2.561,3.8
			S199.837,42.395,199.837,44.047z"/>
		<path fill="#000000" d="M236.476,13.647h23.92l9.76,37.36l9.761-37.36h22.56l-19.44,60.72h-27.119L236.476,13.647z"/>
		<path fill="#000000" d="M357.356,52.927c-0.96,3.308-2.414,6.348-4.36,9.12c-1.947,2.773-4.239,5.173-6.88,7.2
			c-2.64,2.028-5.587,3.6-8.84,4.72c-3.254,1.12-6.667,1.68-10.24,1.68c-4.373,0-8.479-0.827-12.319-2.48
			c-3.841-1.652-7.2-3.92-10.08-6.8s-5.147-6.24-6.8-10.08c-1.654-3.84-2.48-7.92-2.48-12.24c0-4.373,0.826-8.48,2.48-12.32
			c1.652-3.84,3.92-7.2,6.8-10.08c2.88-2.88,6.239-5.146,10.08-6.8c3.84-1.652,7.946-2.48,12.319-2.48s8.48,0.828,12.32,2.48
			c3.84,1.654,7.187,3.92,10.04,6.8c2.853,2.88,5.106,6.24,6.76,10.08c1.652,3.84,2.48,7.948,2.48,12.32
			c0,0.587-0.014,1.188-0.04,1.8c-0.027,0.614-0.067,1.214-0.12,1.8h-42.8c0.692,2.56,1.96,4.574,3.8,6.04
			c1.84,1.468,4.36,2.2,7.56,2.2c1.812,0,3.427-0.24,4.84-0.72s2.413-1.226,3-2.24H357.356z M337.116,37.807
			c-0.747-1.706-1.934-3.08-3.56-4.12c-1.628-1.04-3.8-1.56-6.521-1.56c-2.72,0-4.854,0.52-6.399,1.56
			c-1.548,1.04-2.8,2.414-3.761,4.12H337.116z"/>
	</g>
	<g>
		<path fill="#000000" d="M47.547,82.313h18.96l17.44,26.479V82.313h19.84v60.72h-18.96l-17.44-27.279v27.279h-19.84V82.313z"/>
	</g>
	<g>
		<path fill="#000000" d="M178.881,82.313h28.24l7.12,31.04l7.2-31.04h27.44v60.72h-18.159v-33.359l-8.241,33.359h-17.28
			l-8.24-33.359v33.359h-18.08V82.313z"/>
		<path fill="#000000" d="M249.681,112.714c0-4.372,0.826-8.479,2.48-12.32c1.652-3.84,3.92-7.2,6.799-10.08
			c2.881-2.88,6.24-5.146,10.08-6.8c3.841-1.652,7.947-2.48,12.32-2.48s8.48,0.828,12.32,2.48c3.84,1.654,7.186,3.92,10.04,6.8
			c2.853,2.88,5.106,6.24,6.76,10.08c1.653,3.841,2.479,7.948,2.479,12.32c0,4.319-0.826,8.399-2.479,12.239
			s-3.907,7.201-6.76,10.08c-2.854,2.881-6.2,5.148-10.04,6.801s-7.947,2.479-12.32,2.479s-8.479-0.827-12.32-2.479
			c-3.84-1.652-7.199-3.92-10.08-6.801c-2.879-2.879-5.146-6.24-6.799-10.08C250.507,121.113,249.681,117.033,249.681,112.714z
			 M269.44,112.714c0,1.653,0.307,3.2,0.92,4.64s1.467,2.693,2.561,3.76c1.092,1.068,2.359,1.908,3.8,2.521
			c1.44,0.614,2.986,0.92,4.64,0.92c1.652,0,3.2-0.306,4.641-0.92c1.439-0.612,2.692-1.452,3.76-2.521
			c1.066-1.066,1.906-2.32,2.52-3.76s0.92-2.986,0.92-4.64s-0.307-3.2-0.92-4.64c-0.613-1.44-1.453-2.707-2.52-3.801
			c-1.067-1.092-2.32-1.945-3.76-2.56c-1.44-0.612-2.988-0.921-4.641-0.921c-1.653,0-3.199,0.309-4.64,0.921
			c-1.44,0.614-2.708,1.468-3.8,2.56c-1.094,1.094-1.947,2.36-2.561,3.801C269.747,109.514,269.44,111.061,269.44,112.714z"/>
		<path fill="#000000" d="M306.079,82.313h23.92l9.76,37.36l9.762-37.36h22.559l-19.439,60.72h-27.119L306.079,82.313z"/>
		<path fill="#000000" d="M426.96,121.594c-0.96,3.308-2.414,6.348-4.36,9.12c-1.947,2.773-4.239,5.173-6.88,7.2
			c-2.64,2.027-5.587,3.6-8.84,4.72c-3.254,1.12-6.667,1.68-10.24,1.68c-4.373,0-8.479-0.827-12.319-2.479
			c-3.841-1.652-7.2-3.92-10.08-6.801c-2.88-2.879-5.147-6.24-6.8-10.08c-1.654-3.84-2.48-7.92-2.48-12.239
			c0-4.372,0.826-8.479,2.48-12.32c1.652-3.84,3.92-7.2,6.8-10.08s6.239-5.146,10.08-6.8c3.84-1.652,7.946-2.48,12.319-2.48
			s8.48,0.828,12.32,2.48c3.84,1.654,7.187,3.92,10.04,6.8c2.853,2.88,5.106,6.24,6.76,10.08c1.652,3.841,2.48,7.948,2.48,12.32
			c0,0.587-0.014,1.188-0.04,1.8c-0.027,0.613-0.067,1.214-0.12,1.8h-42.8c0.692,2.56,1.96,4.573,3.8,6.04
			c1.84,1.468,4.36,2.2,7.56,2.2c1.812,0,3.427-0.24,4.84-0.72c1.413-0.48,2.413-1.227,3-2.24H426.96z M406.72,106.474
			c-0.747-1.706-1.934-3.08-3.56-4.12c-1.628-1.04-3.8-1.561-6.521-1.561c-2.72,0-4.854,0.521-6.399,1.561
			c-1.548,1.04-2.8,2.414-3.761,4.12H406.72z"/>
	</g>
	<g>
		<polygon fill="#000000" points="421.977,0 399.957,37.308 421.977,74.616 453.547,74.616 431.526,37.308 453.547,0 		"/>
	</g>
	<g>
		<polygon fill="#000000" points="384.472,0 362.453,37.308 384.472,74.616 416.043,74.616 394.022,37.308 416.043,0 		"/>
	</g>
	<g>
		<polygon fill="#000000" points="137.628,97.289 117.979,97.289 131.684,120.508 117.979,143.727 137.628,143.727 151.332,120.508
					"/>
	</g>
	<g>
		<polygon fill="#000000" points="161.188,97.289 141.539,97.289 155.243,120.508 141.539,143.727 161.188,143.727 174.892,120.508
					"/>
	</g>
</g>
</svg>
